<svg width="50" height="50" viewBox="0 0 48 48" xmlns="http://www.w3.org/2000/svg">
  <path fill="#03A9F4" d="M40 20c.39-1.74-.09-3.78-2.5-6-3.91 3.54-2.8 7.23-1.5 9 0 0-.17 1-4 1s-16 0-16 0S.17 40 18 40c15.6 0 20-12 20.83-15.08C39.18 24.97 39.58 25 40 25c2.15-.02 4.93-1.17 6-5.48C43.16 18.53 41.34 19 40 20z"/>
  <path fill="#0288D1" d="M2.17 28C2.9 32.74 5.98 40 18 40c12.18 0 17.52-7.33 19.68-12H2.17z"/>
  <path fill="#81D4FA" d="M19.81 39.94c-.92-.32-5.07-1.09-5.81-7.94-4.21 1.86-7.94 1.38-9.58 1.01C6.58 37.24 10.59 40 18 40c.62 0 1.22-.02 1.81-.06z"/>
  <path fill="#FFF" d="M18 30a2 2 0 1 0 0 4 2 2 0 0 0 0-4z"/>
  <path fill="#37474F" d="M14.91 33.6c.22.5.5.02 1.16-.51 1.32-3.3 1-6.15 1.1-8.3 1.1-.64-.62-1.19-1.28-1.66-1.96 2.59 0 6.71-.12 9.14-1C14.12 32.91 14.69 33.09 14.91 33.6zM2 27c0 0 1.88.12 3-1 1.88 1.69 5.94 1.09 7 0 1.06 1.69 6.94 1.38 8 0 1.25 1.44 6.62 1.75 8 0 .48 1.46 6.82 1.87 8 0 1.06 1.09 5.06 1.94 7.31 0C43.88 27.19 46 27 46 27v1H2m15 5c0 .55.45 1 1 1 1-1-.45-1-1-1-1z"/>
  <path fill="#01579B" d="M11 24H6v-5h5v5zm10-5h-5v5h5v-5zm10 0h-5v5h5v-5zm-15-5h-5v5h5v-5zm10 0h-5v5h5v-5z"/>
  <path fill="#0288D1" d="M16 24h-5v-5h5v5zm10-5h-5v5h5v-5zm0-10h-5v5h5v-5zm-5 5h-5v5h5v-5z"/>
</svg>